<?xml version="1.0" encoding="UTF-8" ?><!DOCTYPE svg PUBLIC "-//W3C//DTD SVG 1.1//EN" "http://www.w3.org/Graphics/SVG/1.1/DTD/svg11.dtd"><svg width="40px" height="40px" viewBox="0 0 40 39" version="1.1" xmlns="http://www.w3.org/2000/svg"><g id="#295596ff"></g><g id="#000000ff"><path fill="blue" opacity="1.00" d=" M 18.19 0.00 L 22.42 0.00 C 31.54 1.24 39.19 9.01 40.00 18.23 L 40.00 22.15 C 39.01 29.74 33.64 36.44 26.42 39.00 L 25.05 39.00 C 25.12 35.62 25.22 32.16 24.15 28.90 C 35.62 27.77 32.31 15.30 30.46 7.82 C 28.62 8.69 26.71 9.35 24.84 10.14 C 21.62 9.66 18.38 9.67 15.16 10.14 C 13.28 9.33 11.35 8.68 9.47 7.88 C 7.62 15.48 4.48 28.03 16.18 29.00 C 13.71 36.07 8.91 28.22 4.99 27.65 C 7.67 30.96 9.93 35.72 15.07 34.52 C 14.92 36.01 14.86 37.50 14.90 39.00 L 13.56 39.00 C 6.20 36.38 0.71 29.47 0.00 21.66 L 0.00 17.59 C 1.24 8.48 8.97 0.81 18.19 0.00 Z"/></g></svg>