<?xml version="1.0" encoding="UTF-8" ?><!DOCTYPE svg PUBLIC "-//W3C//DTD SVG 1.1//EN" "http://www.w3.org/Graphics/SVG/1.1/DTD/svg11.dtd">
<!--Maded by IcoMoon-->
<svg version="1.1" xmlns="http://www.w3.org/2000/svg" xmlns:xlink="http://www.w3.org/1999/xlink" width="32" height="32" viewBox="0 0 200 200"><g id="icomoon-ignore"><line stroke-width="1" x1="" y1="" x2="" y2="" stroke="#449FDB" opacity=""></line></g><path d="M68.75 93.75h6.25v-6.25h-6.25v6.25zM68.75 112.5h6.25v-6.25h-6.25v6.25zM68.75 75h6.25v-6.25h-6.25v6.25zM68.75 131.25h6.25v-6.25h-6.25v6.25zM68.75 150h6.25v-6.25h-6.25v6.25zM81.25 112.5h50v-6.25h-50v6.25zM81.25 75h50v-6.25h-50v6.25zM130.862 25h-87.112v150h112.5v-125l-25.388-25zM143.75 162.112h-87.5v-124.612h62.5v18.363h25v106.25zM81.25 131.25h50v-6.25h-50v6.25zM81.25 93.75h50v-6.25h-50v6.25zM81.25 150h50v-6.25h-50v6.25z" fill="#3350B3"></path></svg>